<svg xmlns="http://www.w3.org/2000/svg" width="32" height="32" fill="none" viewBox="0 0 32 32"><path fill="#00dbbc" fill-rule="evenodd" d="M7.149 6.989c-.193.09-.369.256-.468.444-.104.194-.104.62 0 .814.1.19.277.356.474.446l.168.077 1.498-.009c1.464-.009 1.502-.01 1.627-.078.174-.093.352-.278.44-.456.098-.2.1-.564.004-.771a1.05 1.05 0 0 0-.476-.468l-.16-.075H7.312zm6.456.565a.94.94 0 0 0-.732.975.94.94 0 0 0 .55.79l.16.073 3.681.016 3.68.016.154.079c.188.096.388.307.48.507l.07.15.009 4.308.009 4.309-.137.07a3.37 3.37 0 0 0-1.41 1.457c-.125.252-.261.66-.296.888l-.022.152h-1.593v-.092c0-.051-.037-.22-.082-.376-.327-1.14-1.205-2-2.377-2.324-.206-.057-.334-.068-.805-.07-.623 0-.869.045-1.323.246-1.015.449-1.753 1.36-1.945 2.403l-.039.212-2.818.008c-2.693.009-2.824.012-2.931.07a.95.95 0 0 0-.451.452c-.094.19-.1.225-.087.458.017.287.1.468.297.64.262.23-.009.212 3.305.222l2.983.008.07.136c.41.807 1.187 1.407 2.17 1.676.326.09 1.207.081 1.556-.014.658-.178 1.072-.419 1.549-.9.245-.248.38-.414.496-.618l.16-.278 1.08-.002 1.079-.001.078.154c.114.226.43.637.646.84.406.382.905.652 1.517.82.161.043.33.056.752.057.493 0 .573-.008.854-.086a3.3 3.3 0 0 0 1.493-.862c.218-.218.524-.633.615-.833l.038-.086 1.348-.011 1.348-.011.25-.087c1.01-.353 1.698-1.086 1.96-2.09.054-.204.059-.468.07-3.517.012-3.345 0-3.843-.106-4.36a4.6 4.6 0 0 0-3.01-3.446c-.694-.24-1.072-.274-3.041-.274h-1.541l-.098-.209a2.97 2.97 0 0 0-1.908-1.59l-.256-.072-3.68-.005c-2.024-.004-3.743.006-3.82.022m9.915 7.325c0 2.842.008 3.59.04 3.598.022.007.163.04.313.076a3.37 3.37 0 0 1 2.236 1.833c.113.242.259.733.259.868v.094l1.048-.01 1.048-.01.16-.085c.193-.103.368-.28.47-.475l.074-.144.009-2.792.008-2.792h-3.057l-.16-.076a.94.94 0 0 1-.294-1.481c.062-.069.182-.16.267-.204l.155-.079 1.464-.009c.95-.006 1.464-.02 1.464-.04 0-.077-.179-.448-.31-.643a3.3 3.3 0 0 0-.783-.774 3.2 3.2 0 0 0-.779-.35c-.215-.066-.296-.07-1.928-.08l-1.704-.012zM4.736 11.966a.925.925 0 0 0-.646.898c0 .363.187.67.507.833l.155.079 2.725.008c2.688.009 2.728.008 2.903-.057.24-.09.479-.349.552-.599a.936.936 0 0 0-.514-1.116l-.162-.075-2.72.002c-1.496.001-2.756.014-2.8.027m-3.232 5.06a.95.95 0 0 0-.54.682c-.08.426.114.813.508 1.017l.144.075H9.68l.135-.072c.675-.36.7-1.28.046-1.664l-.15-.088-4.031-.008c-4-.007-4.033-.007-4.176.058m13.093 3.343c-.453.098-.851.458-1.028.927-.101.27-.101.69 0 .96.38 1.009 1.624 1.29 2.377.538a1.44 1.44 0 0 0-.685-2.425 1.3 1.3 0 0 0-.664 0m8.187-.005c-.727.158-1.218.87-1.116 1.62.06.449.396.906.806 1.1.815.386 1.792-.077 2.02-.957a1.41 1.41 0 0 0-.376-1.362 1.4 1.4 0 0 0-.697-.396 1.26 1.26 0 0 0-.637-.005" clip-rule="evenodd"/></svg>