<svg xmlns="http://www.w3.org/2000/svg" width="128" height="16" fill="none" viewBox="0 0 128 16"><path fill="#fff" d="M40.129 11.696q-1.393-1.286-1.393-3.785 0-2.51 1.393-3.786 1.392-1.286 4-1.286 2.616 0 4.009 1.286 1.393 1.277 1.393 3.786 0 2.5-1.393 3.785-1.393 1.287-4.01 1.286-2.605 0-4-1.286m2.259-6.107q-.554.723-.554 2.313t.554 2.321 1.74.732q1.197 0 1.75-.732.563-.732.563-2.321t-.562-2.313q-.555-.723-1.75-.723-1.188 0-1.741.723M31.02 12.054q-2.026 0-3.276-1.224-1.24-1.223-1.241-3.392 0-2.17 1.42-3.384 1.419-1.215 4.071-1.215 1.294 0 2.688.295 1.392.286 2.098.705v8.268q0 1.992-1.313 2.938-1.312.954-3.687.955-2.367 0-3.652-.598-1.277-.59-1.277-1.956 0-.24.152-.401a.56.56 0 0 1 .402-.152h1.33q.642 0 1.027.473.491.607 1.74.607 1.26 0 1.724-.41.465-.412.464-1.456v-.42q-1.428.367-2.67.367M31.808 5q-2.117-.008-2.117 2.446 0 2.447 2.063 2.447.857 0 1.937-.268V5.196q-.767-.205-1.883-.196M15.448 12.16q-1.179-.82-1.179-2.32t1.179-2.304q1.187-.804 3.053-.804h2.956q0-1.044-.438-1.455-.437-.41-1.535-.41-1.09-.001-1.536.544-.438.535-1.08.535h-1.33a.56.56 0 0 1-.403-.151.55.55 0 0 1-.151-.393q0-2.563 4.866-2.563 2.124 0 3.41.956 1.286.946 1.286 2.937v5.527q0 .24-.152.393a.53.53 0 0 1-.393.152h-1.723a.53.53 0 0 1-.393-.152.55.55 0 0 1-.151-.393v-.277q-1.41 1.01-3.26 1-1.84 0-3.026-.821m3.268-3.401q-.625 0-.991.303a.98.98 0 0 0-.358.786.99.99 0 0 0 .375.795q.376.312 1.063.312 1.375 0 2.652-.803V8.759zM0 11.964V.848Q0 .5.241.25A.79.79 0 0 1 .831 0h6.812q5.402 0 5.402 4.982 0 4.973-5.402 4.973H3.366v2.01a.82.82 0 0 1-.25.598.8.8 0 0 1-.59.24H.849a.83.83 0 0 1-.598-.24.82.82 0 0 1-.25-.599M3.366 7.43h3.259q1.5 0 2.277-.5.777-.51.777-1.947 0-1.446-.777-1.946-.777-.51-2.277-.51H3.366zM84.58 7.499l-1.053-1.052-.974.846-.918-.83-1.013 1.068.447.53v3.148l.817.847.84-.855-.432-.411V8.18l.542-.507.503.506v3.03l.809.815.88-.878-.448-.42zM89.575 7.31V11.2l1.727.744 1.65-.87V7.262l-1.783-.855zm2.112 3.693-.966-.403V7.35l.966.435zM103.405 11.051l-1.155-.498V9.88l2.231-1.66-1.516-1.765-1.814.902v3.884l1.696.704 1.665-1.155c-.322-.214-.707.45-1.1.261zm-1.155-3.67 1.052 1.281-1.052.744zM121.255 5.157l-.863-.878-.841.863.864.862zM97.035 5c.252.19.44-.135.73-.056l1.312.633v1.1l-.557-.27-1.571.902v3.892l1.728.744 1.641-.87V4.952l-1.633-.712zm2.042 6.004-.966-.404V7.35l.966.435zM116.889 7.475V4.311c0-.055-1.257 1.25-1.257 1.25v5.672l.786.846.84-.854-.408-.412v-2.61l.463-.506.44.506v4.92l1.241-1.241v-4.39l-1.037-1.069zM121.161 7.27l-.801-.736-.824.87.329.356v3.45l.817.846.911-.926-.432-.459zM123.392 4.311l-1.296 1.163v5.735l.817.847.911-.926-.432-.459zM126.698 11.051l-1.154-.498V9.88l2.23-1.66-1.516-1.765-1.806.902v3.884l1.696.704 1.673-1.155c-.33-.214-.715.45-1.107.261zm-1.147-3.67 1.053 1.281-1.053.744z"/><path fill="#fff" d="M113.433 5.656c1.061.206 1.901-.665 2.396-1.155 0-.071-.087-.063-.165.04-.636.64-1.013-.491-1.571-.665-1.225-.403-2.128 1.005-3.086 1.527v4.43l-.369.364a4.07 4.07 0 0 1-1.202-2.46c-.291-1.9 1.5-3.165 3.024-3.956a4.54 4.54 0 0 0-2.2.525 4.6 4.6 0 0 0-1.68 1.524 4.82 4.82 0 0 0-.259 4.066 3.84 3.84 0 0 0 1.957 1.958 3.8 3.8 0 0 0 2.755.123 2.75 2.75 0 0 0 1.767-1.93c-.471.055-.856.592-1.359.585zm-.322 5.047a2.63 2.63 0 0 1-2.246-.467l1.791-1.345V4.683l.455.38zM88.396 7.974l.856-.633-1.798-.854-1.822.862v3.742l1.649.79a.51.51 0 0 0 .51 0l1.36-1.036h-.119a1.65 1.65 0 0 1-.651.348l-1.43-.672V7.404zM79.797 7.175 78.14 6.43l-1.665.839.078.079c.283-.158.62-.3.786-.222l1.162.499c.072.042.13.105.165.182v.79l-.785-.347-1.689.901v2.018l1.626.79 1.288-.498.707.594.785-.791-.785-.792zm-1.131 4.05L77.26 10.6V9.018l1.406.664zM70.192 4.335c-.495.538-1.35.846-1.798 1.455v3.378c0 .507-.362.388-.33.689L70.05 8.55V5.047l2.56-1.86-.134-.062c-.66.276-1.335-.293-2.104-.246a4.34 4.34 0 0 0-2.875 1.274 2.72 2.72 0 0 1 2.694.19"/><path fill="#fff" d="M73.71 7.08a6.6 6.6 0 0 0 1.72-1.385c.377-.593-.69-1.78-1.24-2.634l-.464-.126L70.49 5.26v3.956c0 .482-.251.348-.235.617l2.042-1.377V4.54l.542-.41v6.138l-1.1-.285a4.2 4.2 0 0 0-2.1.297 4.24 4.24 0 0 0-1.693 1.285 4.78 4.78 0 0 1 4.54.388l2.819-2.01c.455-.427.18-1.202.196-1.748-.079-.925-1.123-.98-1.79-1.115m-.243 3.48-.197-.11V7.586c.22 0 .354.269.346.522v2.183a.25.25 0 0 1-.165.238zm-.212-3.892V4.833c.534.388 1.029 1.582 0 1.835M57.4 12.032a1.85 1.85 0 0 1-.99-.261 1.76 1.76 0 0 1-.651-.704 2.3 2.3 0 0 1-.228-1.029 2.2 2.2 0 0 1 .236-1.02c.148-.291.373-.535.651-.704.3-.178.643-.266.99-.253.273 0 .542.064.785.19.232.12.425.304.558.53V6.407h.636v5.538h-.581l-.055-.633a1.7 1.7 0 0 1-.526.498 1.5 1.5 0 0 1-.825.222m.063-.554c.237.004.471-.059.675-.182.196-.12.354-.292.456-.498a1.8 1.8 0 0 0 0-1.503 1.2 1.2 0 0 0-.456-.499 1.26 1.26 0 0 0-.675-.181 1.25 1.25 0 0 0-.66.181c-.195.12-.353.293-.455.499a1.8 1.8 0 0 0 0 1.503c.102.206.26.379.455.498.199.121.427.184.66.182M62.152 12.032a1.84 1.84 0 0 1-.958-.245 1.8 1.8 0 0 1-.66-.697 2.2 2.2 0 0 1-.236-1.044c-.007-.362.073-.72.236-1.044.15-.29.378-.533.66-.696.296-.17.633-.255.973-.245.331-.01.658.075.943.245.26.157.473.384.612.656.141.269.214.567.212.87V10a1.4 1.4 0 0 0 0 .19h-3c.007.256.077.506.205.727.108.181.262.329.447.428a1.21 1.21 0 0 0 1.233 0 1 1 0 0 0 .385-.49h.636c-.1.343-.303.647-.58.87-.322.23-.715.34-1.108.308m0-3.433c-.285.002-.561.1-.786.276a1.15 1.15 0 0 0-.408.792h2.356a1.07 1.07 0 0 0-.353-.792 1.13 1.13 0 0 0-.81-.276"/></svg>