<svg xmlns="http://www.w3.org/2000/svg" width="164" height="22" fill="none" viewBox="0 0 164 22"><path fill="#fff" d="M52.669 15.852q-1.828-1.688-1.828-4.97 0-3.291 1.828-4.968 1.828-1.687 5.25-1.687 3.433 0 5.262 1.687 1.828 1.676 1.828 4.969 0 3.281-1.828 4.969-1.83 1.687-5.262 1.687-3.422 0-5.25-1.687m2.965-8.016q-.727.949-.727 3.035 0 2.085.727 3.047.726.96 2.285.96 1.57 0 2.297-.96.738-.96.738-3.047 0-2.085-.738-3.035-.727-.95-2.297-.95-1.559 0-2.285.95M40.715 16.32q-2.66 0-4.3-1.605-1.63-1.606-1.63-4.453 0-2.849 1.863-4.442 1.864-1.593 5.344-1.593 1.7 0 3.528.386 1.827.375 2.753.926v10.852q0 2.613-1.722 3.855-1.723 1.254-4.84 1.254-3.105 0-4.793-.785-1.676-.774-1.676-2.567 0-.315.2-.527.21-.2.527-.2h1.746q.844 0 1.347.622.645.797 2.286.797 1.652 0 2.261-.54.61-.538.61-1.91v-.55q-1.875.48-3.504.48m1.031-9.257q-2.778-.012-2.777 3.21 0 3.211 2.707 3.211 1.124 0 2.543-.351V7.32q-1.008-.27-2.473-.258M20.275 16.46q-1.546-1.077-1.546-3.046t1.546-3.023q1.56-1.055 4.008-1.055h3.88q0-1.37-.575-1.91t-2.016-.54q-1.43 0-2.015.716-.575.702-1.418.703h-1.746a.74.74 0 0 1-.528-.2.72.72 0 0 1-.199-.515q0-3.363 6.387-3.363 2.79 0 4.476 1.253 1.688 1.243 1.688 3.856v7.254a.7.7 0 0 1-.2.515.7.7 0 0 1-.515.2H29.24a.7.7 0 0 1-.515-.2.72.72 0 0 1-.2-.515v-.363q-1.851 1.324-4.277 1.312-2.415 0-3.973-1.078m4.29-4.464q-.82 0-1.301.399a1.29 1.29 0 0 0-.47 1.03q0 .634.493 1.044.492.41 1.395.41 1.804 0 3.48-1.055v-1.828zM0 16.203V1.613q0-.456.316-.785Q.633.5 1.09.5h8.941q7.09 0 7.09 6.54 0 6.526-7.09 6.526H4.418v2.637q0 .458-.328.785-.316.317-.774.317H1.113q-.456 0-.785-.317A1.07 1.07 0 0 1 0 16.203m4.418-5.953h4.277q1.97 0 2.989-.656 1.02-.669 1.02-2.555 0-1.898-1.02-2.555-1.02-.668-2.989-.668H4.418zM109.435 10.372l-1.32-1.32-1.221 1.062-1.152-1.042-1.27 1.34.561.664v3.948l1.024 1.062 1.054-1.072-.542-.516v-3.273l.68-.635.63.635v3.8l1.014 1.02 1.103-1.1-.561-.526zM115.698 10.134v4.88l2.167.933 2.068-1.091v-4.782l-2.236-1.071zm2.649 4.632-1.211-.506v-4.077l1.211.546zM133.04 14.826l-1.447-.625v-.843l2.796-2.083-1.9-2.212-2.275 1.13v4.87l2.127.884 2.088-1.448c-.404-.268-.887.565-1.379.327zm-1.447-4.603 1.319 1.607-1.319.933zM155.424 7.436l-1.083-1.101-1.054 1.08 1.084 1.082zM125.054 7.237c.315.238.551-.168.915-.07l1.645.794v1.38l-.699-.338-1.97 1.13v4.881l2.167.933 2.058-1.091V7.178l-2.048-.893zm2.56 7.53-1.211-.507v-4.077l1.211.546zM149.949 10.342V6.374c0-.07-1.576 1.567-1.576 1.567v7.113l.985 1.061 1.054-1.071-.512-.516v-3.273l.581-.635.551.635v6.17l1.556-1.558v-5.505l-1.3-1.34zM155.306 10.084l-1.004-.922-1.034 1.09.413.447v4.325l1.025 1.062 1.142-1.161-.542-.575zM158.103 6.374l-1.625 1.458v7.192l1.024 1.061 1.143-1.16-.542-.575zM162.249 14.826l-1.448-.625v-.843l2.797-2.083-1.901-2.212-2.265 1.13v4.87l2.128.884 2.097-1.448c-.413-.268-.896.565-1.388.327zm-1.438-4.603 1.32 1.607-1.32.933z"/><path fill="#fff" d="M145.616 8.06c1.329.259 2.383-.833 3.004-1.448 0-.089-.109-.079-.207.05-.798.803-1.271-.615-1.97-.833-1.536-.506-2.669 1.26-3.87 1.914v5.555l-.463.456a5.1 5.1 0 0 1-1.507-3.085c-.364-2.38 1.881-3.967 3.792-4.96a5.7 5.7 0 0 0-2.759.659 5.74 5.74 0 0 0-2.106 1.91 6.05 6.05 0 0 0-.325 5.1 4.8 4.8 0 0 0 2.454 2.454 4.76 4.76 0 0 0 3.455.154 3.43 3.43 0 0 0 1.412-.928 3.5 3.5 0 0 0 .804-1.492c-.591.07-1.074.744-1.704.734zm-.404 6.33a3.3 3.3 0 0 1-2.816-.586l2.245-1.686V6.84l.571.477zM114.221 10.967l1.073-.793-2.255-1.072-2.285 1.081v4.692l2.068.992a.64.64 0 0 0 .64 0l1.704-1.3h-.148a2.06 2.06 0 0 1-.817.437l-1.792-.843v-3.908zM103.437 9.965l-2.077-.932-2.088 1.051.098.1c.355-.199.778-.378.985-.278l1.458.625c.09.052.163.132.206.228v.992l-.984-.437-2.118 1.131v2.53l2.039.992 1.615-.625.886.743.985-.991-.985-.992zm-1.418 5.079-1.762-.784v-1.983l1.762.833zM91.393 6.404c-.62.675-1.693 1.062-2.255 1.825v4.236c0 .635-.453.486-.413.863l2.491-1.637V7.297l3.21-2.331-.167-.08c-.827.348-1.674-.366-2.64-.307a5.44 5.44 0 0 0-3.603 1.597 3.42 3.42 0 0 1 3.377.238"/><path fill="#fff" d="M95.805 9.846a8.3 8.3 0 0 0 2.157-1.736c.473-.744-.867-2.232-1.556-3.303l-.581-.159-4.057 2.917v4.96c0 .604-.316.436-.296.773l2.56-1.726v-4.91l.68-.516v7.698l-1.379-.357a5.3 5.3 0 0 0-2.633.372 5.3 5.3 0 0 0-2.123 1.611 6 6 0 0 1 5.692.486l3.535-2.52c.572-.535.227-1.507.247-2.191-.099-1.16-1.409-1.23-2.246-1.399m-.305 4.365-.246-.14v-3.59c.276 0 .443.337.433.655v2.738a.31.31 0 0 1-.207.297zm-.266-4.88V7.028c.67.486 1.29 1.984 0 2.301M75.353 16.056a2.3 2.3 0 0 1-1.24-.328 2.2 2.2 0 0 1-.818-.882 2.9 2.9 0 0 1-.286-1.29 2.7 2.7 0 0 1 .296-1.28c.186-.364.468-.67.817-.882a2.27 2.27 0 0 1 1.24-.318c.343 0 .68.081.986.238.29.15.533.381.699.665V9.003h.797v6.944h-.728l-.07-.794a2.1 2.1 0 0 1-.659.625 1.9 1.9 0 0 1-1.034.278m.079-.695c.298.005.591-.074.847-.228.245-.15.443-.366.57-.625a2.25 2.25 0 0 0 0-1.884 1.5 1.5 0 0 0-.57-.625 1.6 1.6 0 0 0-.847-.228 1.57 1.57 0 0 0-.828.228c-.245.15-.443.366-.57.625a2.25 2.25 0 0 0 0 1.884c.127.259.325.475.57.625.25.152.536.23.828.228M81.311 16.056a2.3 2.3 0 0 1-1.201-.308 2.3 2.3 0 0 1-.827-.873 2.74 2.74 0 0 1-.296-1.31c-.01-.453.092-.903.296-1.308.187-.365.474-.668.827-.873.371-.213.794-.32 1.221-.308.415-.012.825.095 1.182.308.327.197.593.482.768.823.176.336.268.71.266 1.091v.208q-.008.12 0 .238h-3.762c.008.322.096.635.256.913.135.226.33.412.561.536a1.52 1.52 0 0 0 1.546 0c.223-.147.392-.363.483-.615h.798c-.126.43-.38.812-.73 1.09-.402.29-.894.428-1.388.388m0-4.305a1.6 1.6 0 0 0-.985.347 1.44 1.44 0 0 0-.511.992h2.954a1.35 1.35 0 0 0-.443-.992 1.4 1.4 0 0 0-1.015-.347"/></svg>