<svg xmlns="http://www.w3.org/2000/svg" width="28" height="28" fill="none" viewBox="0 0 28 28"><mask id="a" width="22" height="14" x="3" y="7" maskUnits="userSpaceOnUse" style="mask-type:luminance"><path fill="#fff" fill-rule="evenodd" d="M4.667 21h18.666a1.17 1.17 0 0 0 1.167-1.167 1.17 1.17 0 0 0-1.167-1.166H4.667A1.17 1.17 0 0 0 3.5 19.833 1.17 1.17 0 0 0 4.667 21m4.666-5.833h14A1.17 1.17 0 0 0 24.5 14a1.17 1.17 0 0 0-1.167-1.167h-14A1.17 1.17 0 0 0 8.167 14a1.17 1.17 0 0 0 1.166 1.167m-5.833-7a1.17 1.17 0 0 0 1.167 1.166h18.666A1.17 1.17 0 0 0 24.5 8.167 1.17 1.17 0 0 0 23.333 7H4.667A1.17 1.17 0 0 0 3.5 8.167" clip-rule="evenodd"/></mask><g mask="url(#a)"><path fill="#fff" d="M0 0h28v28H0z"/></g></svg>